<?xml version="1.0" encoding="UTF-8"?>
<svg version="1.1" xmlns="http://www.w3.org/2000/svg" width="1024" height="1024">
<path d="M0 0 C337.92 0 675.84 0 1024 0 C1024 337.92 1024 675.84 1024 1024 C686.08 1024 348.16 1024 0 1024 C0 686.08 0 348.16 0 0 Z " fill="#40A5FE" transform="translate(0,0)"/>
<path d="M0 0 C337.92 0 675.84 0 1024 0 C1024 337.92 1024 675.84 1024 1024 C686.08 1024 348.16 1024 0 1024 C0 686.08 0 348.16 0 0 Z M447 82 C446.31605164 82.10890564 445.63210327 82.21781128 444.9274292 82.33001709 C387.98271508 91.46276964 331.42551945 111.22032718 283 143 C281.98550781 143.64582031 280.97101563 144.29164063 279.92578125 144.95703125 C266.3657111 153.7442527 253.32457527 163.55450795 241 174 C239.91040602 174.91566188 238.82054739 175.8310089 237.73046875 176.74609375 C231.76368804 181.76481741 225.80722054 186.79681517 220 192 C219.02546875 192.87011719 218.0509375 193.74023438 217.046875 194.63671875 C209.76032561 201.21128823 203.00039318 208.11478987 196.44091797 215.41064453 C195.04062396 216.95519113 193.62088061 218.47855936 192.19140625 219.99609375 C185.90629234 226.68777388 180.11996215 233.6593923 174.55566406 240.95996094 C173.46262425 242.39333205 172.36522573 243.82338475 171.26464844 245.25097656 C157.84487445 262.67025743 145.78359064 280.83632172 135 300 C134.4622998 300.95116699 133.92459961 301.90233398 133.37060547 302.88232422 C124.77239732 318.18535893 117.2808539 333.60935105 111 350 C110.61505371 350.99290039 110.23010742 351.98580078 109.83349609 353.00878906 C97.17306236 385.92485599 89.43719527 420.06707493 85 455 C84.81993408 456.38783691 84.81993408 456.38783691 84.63623047 457.80371094 C80.93010051 487.86147434 81.48449435 519.94147135 85 550 C85.12890625 551.12615723 85.2578125 552.25231445 85.390625 553.41259766 C88.39067191 578.84007859 93.07578099 603.86124822 101.08789062 628.20507812 C102.00958999 631.02938603 102.8901699 633.86417677 103.765625 636.703125 C116.96231169 678.76381377 137.8841116 719.57124845 164 755 C164.41620605 755.56783203 164.83241211 756.13566406 165.26123047 756.72070312 C184.21448355 782.52480752 206.06008078 809.24343443 231.4296875 828.98828125 C233.82383165 830.86211748 236.12299723 832.81926008 238.41601562 834.81469727 C264.15681959 857.12365853 293.64831804 874.77642742 324 890 C324.75877441 890.38140137 325.51754883 890.76280273 326.29931641 891.15576172 C383.21830397 919.50416218 447.14952874 932.26322732 510.4375 932.1875 C511.45389557 932.18656342 512.47029114 932.18562683 513.51748657 932.18466187 C529.1018282 932.15360547 544.50999249 931.86795934 560 930 C560.95534637 929.88688477 560.95534637 929.88688477 561.92999268 929.77148438 C603.62328876 924.80843988 644.43397321 914.77061019 683 898 C684.48886719 897.35659668 684.48886719 897.35659668 686.0078125 896.70019531 C709.98969384 886.2507257 732.38429845 873.71544404 754 859 C755.20922119 858.18136475 755.20922119 858.18136475 756.44287109 857.34619141 C765.02438347 851.51134123 773.19833323 845.39524557 781.0234375 838.578125 C783.80121998 836.17217167 786.63235209 833.85992397 789.5 831.5625 C800.0593395 822.92166711 809.72074488 813.37345367 819.375 803.75 C819.84926422 803.27841461 820.32352844 802.80682922 820.81216431 802.32095337 C826.43220285 796.72500331 831.8833206 791.06050249 837 785 C837.54092285 784.36578125 838.0818457 783.7315625 838.63916016 783.078125 C847.65816984 772.44428819 856.05602404 761.45698385 864 750 C864.57250488 749.17483887 865.14500977 748.34967773 865.73486328 747.49951172 C874.54633697 734.71886192 882.55277051 721.61722309 890 708 C890.48678223 707.12214844 890.97356445 706.24429688 891.47509766 705.33984375 C904.66436589 681.45575208 915.15944719 656.12830196 923 630 C923.33338379 628.89543457 923.66676758 627.79086914 924.01025391 626.65283203 C934.33537643 591.99511198 941.3166937 555.27929412 942 519 C942.03867188 517.49542236 942.03867188 517.49542236 942.078125 515.96044922 C943.09030915 472.29102932 937.70088864 429.07718437 926 387 C925.73638672 386.0291748 925.47277344 385.05834961 925.20117188 384.05810547 C918.33574732 359.00962977 908.06490773 335.02006431 896.42626953 311.84619141 C895.07531167 309.15028817 893.75323872 306.44179505 892.43359375 303.73046875 C878.3425715 275.31018987 858.70045165 247.95202662 837.3359375 224.58203125 C836.07459517 223.18780503 834.81907332 221.78768873 833.59960938 220.35668945 C828.47729223 214.36535222 822.96555524 208.77942331 817.39501953 203.2097168 C815.76172552 201.57424118 814.1366153 199.93092292 812.51171875 198.28710938 C805.99632364 191.73671214 799.24897595 185.74413779 792 180 C790.60890256 178.84378969 789.22183543 177.68270398 787.83984375 176.515625 C727.49061092 125.89228366 653.99563194 93.16648783 576 82 C574.99646484 81.85578613 573.99292969 81.71157227 572.95898438 81.56298828 C569.93241178 81.13481784 566.90448897 80.71949852 563.875 80.3125 C562.9876416 80.19293945 562.1002832 80.07337891 561.18603516 79.95019531 C523.81036194 75.16466655 484.19187455 76.00102081 447 82 Z " fill="#FBFBFB" transform="translate(0,0)"/>
<path d="M0 0 C0.70968742 -0.00320648 1.41937485 -0.00641296 2.15056795 -0.0097166 C4.51676667 -0.01798494 6.88271018 -0.01210352 9.24891281 -0.00622082 C10.96730838 -0.00924296 12.68570261 -0.01313275 14.40409446 -0.01781338 C19.11733181 -0.02809425 23.8304931 -0.02591131 28.5437367 -0.02163279 C33.63045271 -0.0191657 38.71715041 -0.02817958 43.80385971 -0.03567028 C53.76639874 -0.04842026 63.72891083 -0.05021056 73.69145665 -0.04787002 C81.79042285 -0.04608685 89.88938087 -0.04783647 97.9883461 -0.05209446 C99.71751166 -0.05298724 99.71751166 -0.05298724 101.48160987 -0.05389806 C103.82351782 -0.05510982 106.16542577 -0.05632395 108.50733373 -0.05754044 C130.47104481 -0.06841736 152.43474054 -0.0662529 174.39845249 -0.06015559 C194.48458744 -0.05498761 214.57067387 -0.06623848 234.65679923 -0.08525381 C255.28662142 -0.10463394 275.91642066 -0.11288782 296.54625201 -0.10913056 C308.12610263 -0.10721862 319.70591197 -0.10970536 331.28575516 -0.1238451 C341.14505388 -0.13576216 351.00428592 -0.13716019 360.86358556 -0.12505493 C365.89188277 -0.11916826 370.92005802 -0.11806099 375.94834709 -0.13005733 C380.55628692 -0.14092283 385.16400306 -0.13780478 389.77193245 -0.12379565 C391.43407608 -0.12115055 393.09623727 -0.12350937 394.75836363 -0.13153151 C413.42082079 -0.2153137 429.62814558 3.68202231 443.42341232 17.07088184 C444.12079514 17.79146778 444.81817795 18.51205372 445.53669357 19.25447559 C446.12063889 19.84099903 446.7045842 20.42752247 447.30622482 21.03181934 C456.56901514 30.99811272 460.65128861 44.91093476 460.67091465 58.2574873 C460.67326688 58.94171979 460.67561911 59.62595228 460.67804262 60.33091909 C460.6846969 62.62254185 460.68427548 64.91410744 460.68386459 67.20573902 C460.68716545 68.86593449 460.69089149 70.52612916 460.69500607 72.18632281 C460.70500908 76.74811393 460.70874014 81.30989189 460.71139538 85.87169242 C460.71530352 90.79219002 460.72488156 95.71267725 460.73360825 100.63316822 C460.75335907 112.51664612 460.76343748 124.40012485 460.77233604 136.28361505 C460.77672152 141.88316175 460.78208769 147.4827075 460.78732491 153.08225346 C460.80433641 171.70264903 460.81882959 190.32304401 460.82607365 208.94344616 C460.82798347 213.77417343 460.82990381 218.60490069 460.83185959 223.43562794 C460.83234333 224.63624633 460.83282707 225.83686472 460.83332547 227.07386549 C460.84162207 246.51401607 460.86695311 265.95410505 460.89944027 285.39422874 C460.93253989 305.36407633 460.95052507 325.33389264 460.95371789 345.3037678 C460.95588038 356.51156187 460.96459075 367.71926613 460.99017906 378.92703342 C461.01192577 388.47409497 461.01991698 398.02104488 461.01021228 407.56812839 C461.00567899 412.43492994 461.00749707 417.30150134 461.02697372 422.16827106 C461.04468804 426.63345327 461.0435412 431.09823883 461.02807643 435.56342573 C461.02571283 437.16917806 461.02995829 438.77495846 461.04190508 440.38066809 C461.16929906 458.65128952 457.52934808 476.64523458 444.54059982 490.41853809 C428.7497639 504.88577568 412.18556694 508.72340837 391.32604599 508.64888477 C389.61443315 508.65378243 387.90282362 508.65997626 386.19121963 508.66734266 C381.51977748 508.68365418 376.84850508 508.68144228 372.17704451 508.67596769 C367.12645594 508.67328662 362.07591151 508.68784939 357.02534103 508.70006275 C347.14301878 508.72107311 337.26075524 508.72566014 327.37841328 508.72387487 C319.34252594 508.7225651 311.30665685 508.72638233 303.27077293 508.73379993 C300.95237933 508.73589922 298.63398572 508.73799682 296.31559211 508.74009275 C294.58447806 508.74165805 294.58447806 508.74165805 292.81839202 508.74325496 C271.01286132 508.76213939 249.20736429 508.76111256 227.4018288 508.75428563 C207.47387712 508.74871072 187.54605401 508.76953667 167.61813238 508.8026461 C147.13276769 508.83641632 126.64746455 508.85154733 106.16207153 508.84692907 C94.6704448 508.84468786 83.17893693 508.84987673 71.68733406 508.87482166 C61.90435748 508.89587772 52.12156494 508.89938398 42.33858069 508.88052207 C37.35220379 508.87139109 32.36616966 508.87014016 27.37981987 508.89087772 C22.80565803 508.90968989 18.23211723 508.90497052 13.65797827 508.88233191 C12.01273543 508.87817188 10.367444 508.8822576 8.72225269 508.89592785 C-10.44892951 509.04424124 -26.11962747 503.69341619 -40.40080643 490.40681934 C-53.94601086 476.2715776 -56.77042485 459.58219487 -56.73073196 440.7771349 C-56.73447173 439.09642448 -56.73907456 437.41571579 -56.74446261 435.73500985 C-56.75666767 431.13051041 -56.75643508 426.52608377 -56.75407386 421.92157185 C-56.75366506 416.95003434 -56.76471087 411.97851997 -56.774189 407.00699329 C-56.7907864 397.27185767 -56.79629798 387.53674628 -56.79741375 377.80159769 C-56.79836484 369.88621527 -56.8024782 361.97084083 -56.808815 354.05546093 C-56.82642415 331.60183791 -56.83565441 309.14823399 -56.83415405 286.69460402 C-56.83403419 284.87971286 -56.83403419 284.87971286 -56.8339119 283.02815723 C-56.83383013 281.81674827 -56.83374837 280.6053393 -56.83366413 279.35722097 C-56.83285138 259.72837722 -56.8519873 240.09961024 -56.88018863 220.47078869 C-56.90893335 200.3042294 -56.92272804 180.13770751 -56.92100108 159.97112721 C-56.92033771 148.65390034 -56.92580647 137.33675394 -56.94735718 126.01954556 C-56.96558986 116.38319508 -56.96989915 106.74696156 -56.95633833 97.11060128 C-56.9498192 92.19745097 -56.94965335 87.28452489 -56.96704483 82.37139606 C-56.98282728 77.86633954 -56.97985938 73.36168407 -56.96247657 68.85663702 C-56.95941802 67.23418943 -56.96299548 65.61171151 -56.97419672 63.98929969 C-57.09173931 45.74353925 -52.71259003 30.06465582 -39.87346268 16.53963184 C-29.08278745 6.30860265 -14.94504162 0.01030383 0 0 Z " fill="#3FA4FE" transform="translate(310.46330642700195,257.7455244064331)"/>
<path d="M0 0 C0.70968742 -0.00320648 1.41937485 -0.00641296 2.15056795 -0.0097166 C4.51676667 -0.01798494 6.88271018 -0.01210352 9.24891281 -0.00622082 C10.96730838 -0.00924296 12.68570261 -0.01313275 14.40409446 -0.01781338 C19.11733181 -0.02809425 23.8304931 -0.02591131 28.5437367 -0.02163279 C33.63045271 -0.0191657 38.71715041 -0.02817958 43.80385971 -0.03567028 C53.76639874 -0.04842026 63.72891083 -0.05021056 73.69145665 -0.04787002 C81.79042285 -0.04608685 89.88938087 -0.04783647 97.9883461 -0.05209446 C99.71751166 -0.05298724 99.71751166 -0.05298724 101.48160987 -0.05389806 C103.82351782 -0.05510982 106.16542577 -0.05632395 108.50733373 -0.05754044 C130.47104481 -0.06841736 152.43474054 -0.0662529 174.39845249 -0.06015559 C194.48458744 -0.05498761 214.57067387 -0.06623848 234.65679923 -0.08525381 C255.28662142 -0.10463394 275.91642066 -0.11288782 296.54625201 -0.10913056 C308.12610263 -0.10721862 319.70591197 -0.10970536 331.28575516 -0.1238451 C341.14505388 -0.13576216 351.00428592 -0.13716019 360.86358556 -0.12505493 C365.89188277 -0.11916826 370.92005802 -0.11806099 375.94834709 -0.13005733 C380.55628692 -0.14092283 385.16400306 -0.13780478 389.77193245 -0.12379565 C391.43407608 -0.12115055 393.09623727 -0.12350937 394.75836363 -0.13153151 C413.42082079 -0.2153137 429.62814558 3.68202231 443.42341232 17.07088184 C444.12079514 17.79146778 444.81817795 18.51205372 445.53669357 19.25447559 C446.12063889 19.84099903 446.7045842 20.42752247 447.30622482 21.03181934 C456.56901514 30.99811272 460.65128861 44.91093476 460.67091465 58.2574873 C460.67326688 58.94171979 460.67561911 59.62595228 460.67804262 60.33091909 C460.6846969 62.62254185 460.68427548 64.91410744 460.68386459 67.20573902 C460.68716545 68.86593449 460.69089149 70.52612916 460.69500607 72.18632281 C460.70500908 76.74811393 460.70874014 81.30989189 460.71139538 85.87169242 C460.71530352 90.79219002 460.72488156 95.71267725 460.73360825 100.63316822 C460.75335907 112.51664612 460.76343748 124.40012485 460.77233604 136.28361505 C460.77672152 141.88316175 460.78208769 147.4827075 460.78732491 153.08225346 C460.80433641 171.70264903 460.81882959 190.32304401 460.82607365 208.94344616 C460.82798347 213.77417343 460.82990381 218.60490069 460.83185959 223.43562794 C460.83234333 224.63624633 460.83282707 225.83686472 460.83332547 227.07386549 C460.84162207 246.51401607 460.86695311 265.95410505 460.89944027 285.39422874 C460.93253989 305.36407633 460.95052507 325.33389264 460.95371789 345.3037678 C460.95588038 356.51156187 460.96459075 367.71926613 460.99017906 378.92703342 C461.01192577 388.47409497 461.01991698 398.02104488 461.01021228 407.56812839 C461.00567899 412.43492994 461.00749707 417.30150134 461.02697372 422.16827106 C461.04468804 426.63345327 461.0435412 431.09823883 461.02807643 435.56342573 C461.02571283 437.16917806 461.02995829 438.77495846 461.04190508 440.38066809 C461.16929906 458.65128952 457.52934808 476.64523458 444.54059982 490.41853809 C428.7497639 504.88577568 412.18556694 508.72340837 391.32604599 508.64888477 C389.61443315 508.65378243 387.90282362 508.65997626 386.19121963 508.66734266 C381.51977748 508.68365418 376.84850508 508.68144228 372.17704451 508.67596769 C367.12645594 508.67328662 362.07591151 508.68784939 357.02534103 508.70006275 C347.14301878 508.72107311 337.26075524 508.72566014 327.37841328 508.72387487 C319.34252594 508.7225651 311.30665685 508.72638233 303.27077293 508.73379993 C300.95237933 508.73589922 298.63398572 508.73799682 296.31559211 508.74009275 C294.58447806 508.74165805 294.58447806 508.74165805 292.81839202 508.74325496 C271.01286132 508.76213939 249.20736429 508.76111256 227.4018288 508.75428563 C207.47387712 508.74871072 187.54605401 508.76953667 167.61813238 508.8026461 C147.13276769 508.83641632 126.64746455 508.85154733 106.16207153 508.84692907 C94.6704448 508.84468786 83.17893693 508.84987673 71.68733406 508.87482166 C61.90435748 508.89587772 52.12156494 508.89938398 42.33858069 508.88052207 C37.35220379 508.87139109 32.36616966 508.87014016 27.37981987 508.89087772 C22.80565803 508.90968989 18.23211723 508.90497052 13.65797827 508.88233191 C12.01273543 508.87817188 10.367444 508.8822576 8.72225269 508.89592785 C-10.44892951 509.04424124 -26.11962747 503.69341619 -40.40080643 490.40681934 C-53.94601086 476.2715776 -56.77042485 459.58219487 -56.73073196 440.7771349 C-56.73447173 439.09642448 -56.73907456 437.41571579 -56.74446261 435.73500985 C-56.75666767 431.13051041 -56.75643508 426.52608377 -56.75407386 421.92157185 C-56.75366506 416.95003434 -56.76471087 411.97851997 -56.774189 407.00699329 C-56.7907864 397.27185767 -56.79629798 387.53674628 -56.79741375 377.80159769 C-56.79836484 369.88621527 -56.8024782 361.97084083 -56.808815 354.05546093 C-56.82642415 331.60183791 -56.83565441 309.14823399 -56.83415405 286.69460402 C-56.83403419 284.87971286 -56.83403419 284.87971286 -56.8339119 283.02815723 C-56.83383013 281.81674827 -56.83374837 280.6053393 -56.83366413 279.35722097 C-56.83285138 259.72837722 -56.8519873 240.09961024 -56.88018863 220.47078869 C-56.90893335 200.3042294 -56.92272804 180.13770751 -56.92100108 159.97112721 C-56.92033771 148.65390034 -56.92580647 137.33675394 -56.94735718 126.01954556 C-56.96558986 116.38319508 -56.96989915 106.74696156 -56.95633833 97.11060128 C-56.9498192 92.19745097 -56.94965335 87.28452489 -56.96704483 82.37139606 C-56.98282728 77.86633954 -56.97985938 73.36168407 -56.96247657 68.85663702 C-56.95941802 67.23418943 -56.96299548 65.61171151 -56.97419672 63.98929969 C-57.09173931 45.74353925 -52.71259003 30.06465582 -39.87346268 16.53963184 C-29.08278745 6.30860265 -14.94504162 0.01030383 0 0 Z M-17.20940018 45.11775684 C-22.14822806 53.53376574 -21.890205 61.75275064 -21.85098648 71.22087574 C-21.85516185 72.85820271 -21.86064048 74.49552679 -21.86730629 76.13284552 C-21.88175306 80.62194725 -21.87751857 85.11086526 -21.87013948 89.59997702 C-21.86540821 94.4453529 -21.87791732 99.29068901 -21.88815689 104.13605213 C-21.90535114 113.62468332 -21.90618358 123.1132483 -21.90094399 132.60189103 C-21.89690214 140.31472253 -21.89834603 148.02753446 -21.90369225 155.74036503 C-21.90444067 156.83821229 -21.90518909 157.93605956 -21.90596019 159.06717492 C-21.90749167 161.29747434 -21.90903002 163.52777376 -21.91057516 165.75807317 C-21.92430253 186.67256696 -21.91886089 207.58702335 -21.90738995 228.5015163 C-21.89745785 247.63197431 -21.91039744 266.76233559 -21.93432414 285.89277868 C-21.95871126 305.5394859 -21.96832392 325.18614807 -21.96167141 344.83287013 C-21.95817827 355.86158061 -21.96041755 366.89021671 -21.97792244 377.91891575 C-21.99263957 387.30764509 -21.99328623 396.69624767 -21.97585153 406.08497451 C-21.96733508 410.87407853 -21.96520778 415.66295605 -21.98050308 420.4520483 C-21.99434087 424.83913667 -21.98959871 429.22580429 -21.97026385 433.61286826 C-21.96650074 435.19691379 -21.9694348 436.78099294 -21.9798755 438.36500852 C-22.04141486 448.41922971 -21.10234872 456.40601476 -15.71330643 465.06697559 C-9.76982333 470.84536194 -4.01224675 473.37671162 4.25258446 473.38869667 C5.2870169 473.39222502 5.2870169 473.39222502 6.34234697 473.39582464 C8.67029788 473.4025208 10.99819306 473.40205623 13.3261528 473.40164661 C15.00524715 473.40494486 16.6843407 473.40867034 18.36343324 473.41278809 C22.99112298 473.42282076 27.61879975 473.42652692 32.24649882 473.4291774 C37.2323555 473.43307672 42.21820187 473.44265534 47.20405197 473.45139027 C59.25189126 473.47116555 71.29973141 473.48122238 83.34758288 473.49011806 C89.01876827 473.49449935 94.68995273 473.49986658 100.36113739 473.50510693 C119.20960992 473.52212051 138.05808187 473.53661507 156.9065609 473.54385567 C161.79938508 473.54576562 166.69220925 473.54768594 171.58503342 473.54964161 C173.40920371 473.55036722 173.40920371 473.55036722 175.27022593 473.55110749 C194.97395681 473.55940918 214.67762702 473.58474788 234.3813314 473.61722229 C254.60304297 473.65027916 274.82472368 473.6683032 295.04646242 473.67149991 C306.40330732 473.67366631 317.76006373 473.68243399 329.11688232 473.70796108 C338.78828288 473.72964934 348.45957347 473.73772773 358.13099559 473.7279943 C363.06576671 473.72344414 368.00031085 473.72537748 372.93505096 473.74475574 C377.45426471 473.76234903 381.97308524 473.76142087 386.49230294 473.74585845 C388.12561096 473.74347655 389.75894594 473.74783612 391.3922127 473.7596871 C401.13655718 473.82600208 409.27534245 473.58735299 417.06013107 467.17635059 C417.6711467 466.45963184 418.28216232 465.74291309 418.91169357 465.00447559 C419.53817795 464.29806934 420.16466232 463.59166309 420.81013107 462.86385059 C426.35519377 454.4835296 425.9645635 446.00373091 425.92437363 436.32603931 C425.92854902 434.69283713 425.93402766 433.05963785 425.94069344 431.42644393 C425.95513991 426.94874363 425.95090581 422.47122751 425.94352663 417.99351716 C425.93879528 413.16041129 425.95130453 408.32734529 425.96154404 403.4942522 C425.97873815 394.02968444 425.97957075 384.56518304 425.97433113 375.10060371 C425.97028926 367.40731835 425.97173321 359.71405259 425.97707939 352.02076817 C425.97782781 350.92569626 425.97857624 349.83062436 425.97934734 348.70236846 C425.98087882 346.47770604 425.98241717 344.25304362 425.9839623 342.02838121 C425.99768962 321.16682251 425.99224808 300.3053013 425.98077709 279.44374345 C425.970845 260.3617843 425.98378457 241.27992211 426.00771128 222.19797792 C426.03209852 202.60099121 426.04171104 183.00404968 426.03505856 163.40704811 C426.03156544 152.40628323 426.03380453 141.40559292 426.05130959 130.40483952 C426.06602686 121.03989863 426.06667319 111.67508484 426.04923867 102.31014647 C426.04072234 97.53319384 426.03859464 92.7564683 426.05389023 87.97952747 C426.06772837 83.60354127 426.06298542 79.22797687 426.04365099 74.85201512 C426.03988799 73.27200726 426.04282164 71.69196569 426.05326264 70.11198784 C426.11672101 59.77094137 425.07100127 51.76383759 419.41169357 42.94197559 C410.65859916 34.75973516 401.29160482 34.53447486 389.87421799 34.61955738 C388.18566248 34.61379014 386.49711326 34.60584498 384.80857706 34.59592116 C380.1870608 34.57510727 375.56606281 34.58533809 370.94454503 34.60085225 C365.95330934 34.61218422 360.96216157 34.59469389 355.97094345 34.58095264 C346.20046574 34.55873545 336.43018023 34.5635147 326.65969503 34.57801585 C318.71806918 34.58931404 310.77649715 34.59083647 302.83486557 34.58539677 C301.70398495 34.5846306 300.57310433 34.58386444 299.4079546 34.58307505 C297.11049424 34.58147641 294.81303389 34.57985534 292.51557356 34.5782121 C270.9791739 34.56395904 249.4428807 34.5803404 227.90649849 34.60721393 C209.4327537 34.62955228 190.959166 34.62567203 172.48542404 34.60262012 C151.02537433 34.57585434 129.5654179 34.56533229 108.10535383 34.58068144 C105.81640976 34.58227417 103.52746568 34.58384602 101.23852158 34.58539677 C99.54927542 34.58655383 99.54927542 34.58655383 97.82590309 34.58773427 C89.89507058 34.59204892 81.9642973 34.58476976 74.03347397 34.572999 C64.36661751 34.55896685 54.69996401 34.56278912 45.03313076 34.58940272 C40.10221 34.60253115 35.17162747 34.60770976 30.2407093 34.59115696 C25.72408299 34.57622437 21.20810747 34.58450006 16.69153994 34.61104472 C15.06045348 34.61661567 13.42931168 34.61382039 11.79826099 34.60166578 C0.19245808 34.52183431 -9.30501776 35.75047379 -17.20940018 45.11775684 Z " fill="#FEFEFE" transform="translate(310.46330642700195,257.7455244064331)"/>
<path d="M0 0 C1.29044128 -0.00623996 2.58088255 -0.01247993 3.91042811 -0.01890898 C7.49058649 -0.0356172 11.07031874 -0.02734944 14.65047872 -0.0149641 C18.5121935 -0.00592183 22.3738345 -0.01987929 26.23553467 -0.03088379 C33.8001952 -0.04868296 41.36469711 -0.0448227 48.9293639 -0.03323323 C55.07718565 -0.02420399 61.22496291 -0.02297269 67.37278938 -0.02732849 C68.24739375 -0.02794142 69.12199811 -0.02855436 70.02310564 -0.02918586 C71.7997956 -0.03046475 73.57648554 -0.0317616 75.35317547 -0.03307623 C92.01891641 -0.04448629 108.68456939 -0.031362 125.35029591 -0.00987476 C139.65183335 0.00799348 153.95324091 0.00489521 168.254776 -0.0135498 C184.8588481 -0.0349544 201.46284305 -0.04338431 218.06692702 -0.03110075 C219.83742971 -0.02982654 221.60793242 -0.02856906 223.37843513 -0.02732849 C224.24957477 -0.02671139 225.1207144 -0.02609429 226.01825221 -0.02545848 C232.15853846 -0.02200412 238.29877581 -0.02783587 244.43905449 -0.0372467 C251.92234265 -0.04846364 259.40546297 -0.04543326 266.88873189 -0.02412373 C270.70723135 -0.01360863 274.52545095 -0.00949905 278.34394836 -0.02272034 C282.48222828 -0.03683214 286.61980112 -0.01998648 290.75805664 0 C291.96670865 -0.00892289 293.17536067 -0.01784577 294.4206385 -0.02703905 C300.69817384 0.03197318 304.73528855 0.16324428 309.44252014 4.50793457 C312.31141542 8.86575018 312.85152359 12.33940989 312.81752014 17.50793457 C312.82525452 18.68355957 312.83298889 19.85918457 312.84095764 21.07043457 C312.40091998 24.86683793 311.43671162 27.26386252 309.44252014 30.50793457 C304.70452835 34.16013658 301.19461459 35.63080037 295.26995564 35.64215565 C294.19254685 35.64661349 293.11513806 35.65107134 292.00508052 35.65566427 C290.81697298 35.6554799 289.62886544 35.65529554 288.40475464 35.65510559 C287.14601821 35.65878228 285.88728178 35.66245897 284.59040183 35.66624707 C281.08953689 35.67627041 277.58868909 35.6799844 274.08781183 35.68263638 C270.31466275 35.68653845 266.54152725 35.69611686 262.76838684 35.70484924 C253.65272675 35.7246165 244.53706554 35.73468023 235.42138937 35.74357703 C231.129311 35.74795954 226.83723387 35.75332645 222.54515648 35.7585659 C208.27838427 35.77557851 194.01161283 35.79007285 179.74483204 35.79731464 C176.042092 35.79922456 172.33935196 35.80114489 168.63661194 35.80310059 C167.25615447 35.8038262 167.25615447 35.8038262 165.84780898 35.80456647 C150.93832254 35.81286738 136.02891632 35.83820517 121.11946491 35.87068126 C105.81444173 35.90374737 90.50945933 35.921763 75.20440024 35.92495888 C66.61028456 35.92712441 58.01628585 35.93587921 49.42220497 35.96142006 C42.10327305 35.98312095 34.78448652 35.99118052 27.46552608 35.98145328 C23.73183419 35.97690675 19.99844229 35.97881493 16.26479149 35.99821472 C12.21471762 36.01907669 8.16530982 36.00886706 4.11520386 35.99568176 C2.93824992 36.00665101 1.76129599 36.01762025 0.54867679 36.0289219 C-6.28885197 35.97511638 -10.75125639 35.20517839 -16.55747986 31.50793457 C-20.5439318 27.08064276 -21.16222525 23.22349322 -20.99497986 17.44543457 C-21.0020697 16.75127441 -21.00915955 16.05711426 -21.01646423 15.34191895 C-20.94521702 9.57089489 -19.41434059 6.65184669 -15.73075008 2.39881134 C-10.71307289 -0.59110398 -5.73464687 -0.0422581 0 0 Z " fill="#FDFEFE" transform="translate(379.55747985839844,652.4920654296875)"/>
<path d="M0 0 C1.09594117 -0.00644889 2.19188233 -0.01289778 3.32103384 -0.0195421 C4.51956161 -0.01644489 5.71808938 -0.01334769 6.95293617 -0.01015663 C8.23042122 -0.01468774 9.50790628 -0.01921886 10.824103 -0.02388728 C14.36801056 -0.03612182 17.91182374 -0.03585629 21.4557476 -0.03349853 C25.27861168 -0.03309048 29.10144546 -0.04412832 32.92429543 -0.05361366 C40.41304463 -0.0702268 47.90176234 -0.07572334 55.39052843 -0.07683842 C61.47731076 -0.07778868 67.5640827 -0.0818979 73.65086174 -0.08823967 C90.90651302 -0.10585244 108.16213942 -0.11507841 125.41779976 -0.11357872 C126.81319506 -0.11345885 126.81319506 -0.11345885 128.23678017 -0.11333656 C129.16817891 -0.1132548 130.09957765 -0.11317304 131.0592006 -0.1130888 C146.15676917 -0.11227575 161.254238 -0.13141817 176.35177772 -0.1596133 C191.85235703 -0.18833282 207.35288769 -0.20215413 222.85349429 -0.20042574 C231.55652873 -0.19976155 240.25945861 -0.20526675 248.9624691 -0.22678185 C256.37178519 -0.24498133 263.78094929 -0.24935112 271.19027804 -0.235763 C274.9704338 -0.22922724 278.7502979 -0.22913778 282.53042603 -0.2464695 C286.62892227 -0.26506765 290.72674151 -0.25266183 294.82525063 -0.23720741 C296.01931695 -0.24749454 297.21338328 -0.25778167 298.44363344 -0.26838052 C305.01032608 -0.21353115 309.22087309 0.24227222 314.51607704 4.25726891 C317.56093382 8.69068 317.94817798 12.44458852 317.95357704 17.75726891 C317.98258095 19.65992516 317.98258095 19.65992516 318.01217079 21.60101891 C317.42589122 25.92194549 316.35667374 27.96765942 313.51607704 31.25726891 C307.75401722 35.28086231 301.62208207 34.67861986 294.87630653 34.64494896 C292.94548831 34.65302727 292.94548831 34.65302727 290.97566366 34.66126877 C287.40923489 34.67572192 283.84303724 34.67147917 280.27659583 34.66410196 C276.42785774 34.6593723 272.5791698 34.67187827 268.73044777 34.68211937 C261.19335778 34.69931608 253.65635112 34.70014566 246.1192466 34.69490647 C239.99385998 34.69086553 233.868498 34.6923074 227.74311256 34.69765472 C226.87141905 34.69840315 225.99972554 34.69915157 225.10161707 34.69992267 C223.33080565 34.70145414 221.55999424 34.70299248 219.78918284 34.70453764 C203.18306717 34.71826557 186.57699862 34.71282269 169.97088403 34.70135242 C154.7757016 34.69141738 139.5806409 34.70436487 124.38547724 34.72828662 C108.78429443 34.75266263 93.18316835 34.76228932 77.58196688 34.75563389 C68.82253574 34.75213864 60.06319826 34.75439402 51.30378151 34.77188492 C43.84797403 34.78658808 36.39232617 34.78726699 28.93652189 34.76981401 C25.13218629 34.76128643 21.32813606 34.75919704 17.52381516 34.77446556 C13.40092666 34.79080793 9.27873012 34.77620077 5.15584755 34.75847435 C3.34972913 34.77288186 3.34972913 34.77288186 1.50712347 34.78758043 C-4.77557166 34.73180538 -8.73794472 34.54894919 -13.48392296 30.25726891 C-16.37638214 26.6186391 -15.88907327 21.83214765 -15.92142296 17.38226891 C-15.95429405 16.59207359 -15.98716515 15.80187828 -16.02103233 14.98773766 C-16.058362 10.90862314 -15.8157383 8.09777506 -13.26907921 4.81195641 C-9.08352913 0.97275619 -5.61178111 0.00836518 0 0 Z " fill="#FEFEFE" transform="translate(374.483922958374,571.7427310943604)"/>
<path d="M0 0 C3.08593624 1.98109487 5.51959045 4.31242307 8 7 C8.825 7.886875 9.65 8.77375 10.5 9.6875 C12.74966795 14.65551672 12.94867603 19.64277065 12 25 C9.28566615 29.56539969 6.00703061 33.2668449 2.2409668 36.97021484 C1.67616608 37.53370132 1.11136536 38.09718781 0.52944946 38.67774963 C-1.32605785 40.52680279 -3.18844402 42.36876584 -5.05078125 44.2109375 C-6.35160099 45.50547782 -7.65190093 46.80054067 -8.95170593 48.09609985 C-12.36916876 51.5002916 -15.79215397 54.89887059 -19.21679688 58.2958374 C-24.68772576 63.72358648 -30.15198757 69.15802486 -35.61287498 74.59587479 C-37.51084736 76.48371676 -39.41224731 78.36805352 -41.31404114 80.25204468 C-46.55804321 85.45968415 -51.72541758 90.65572366 -56.51869202 96.28814697 C-59.00488255 99.16127858 -61.68835947 101.83133977 -64.37890625 104.51171875 C-64.95406479 105.08783401 -65.52922333 105.66394928 -66.12181091 106.25752258 C-67.3246909 107.46107627 -68.5288072 108.66339555 -69.73413086 109.86450195 C-71.56545491 111.69044623 -73.39134688 113.52170092 -75.21679688 115.35351562 C-76.3955127 116.5315709 -77.57453854 117.70931609 -78.75390625 118.88671875 C-79.2915712 119.42640793 -79.82923615 119.96609711 -80.38319397 120.5221405 C-82.89725504 123.02088849 -85.43632762 125.40374193 -88.18212891 127.6472168 C-90.51148593 129.59211488 -92.40521663 131.43647585 -94.33203125 133.7578125 C-98.24658704 138.34075959 -102.42896393 142.61272509 -106.6875 146.875 C-107.43322266 147.63296875 -108.17894531 148.3909375 -108.94726562 149.171875 C-110.03104492 150.25855469 -110.03104492 150.25855469 -111.13671875 151.3671875 C-111.78342529 152.01800293 -112.43013184 152.66881836 -113.09643555 153.33935547 C-116.87233389 156.6333994 -119.90802997 157.311807 -124.875 157.375 C-125.88304687 157.40335938 -126.89109375 157.43171875 -127.9296875 157.4609375 C-134.59492127 156.46030444 -139.12575723 151.13966647 -143.6484375 146.51171875 C-144.26465973 145.89029495 -144.88088196 145.26887115 -145.51577759 144.62861633 C-147.47371377 142.65298264 -149.42480731 140.67077545 -151.375 138.6875 C-153.94190046 136.08384735 -156.5119796 133.48339484 -159.0859375 130.88671875 C-159.70389694 130.26326065 -160.32185638 129.63980255 -160.95854187 128.99745178 C-164.53268949 125.41180325 -168.18100422 121.99335287 -172.04589844 118.72045898 C-176.54450809 114.75972657 -180.70988301 110.43269544 -184.9375 106.1875 C-185.90412902 105.22444087 -186.8709249 104.26154919 -187.83789062 103.29882812 C-188.74603516 102.38939453 -189.65417969 101.47996094 -190.58984375 100.54296875 C-191.41347412 99.71821045 -192.23710449 98.89345215 -193.08569336 98.04370117 C-196.8749297 93.99833739 -196.6352387 89.84706085 -196.60546875 84.4765625 C-195.42047449 77.67240191 -190.58347274 73.61391843 -185.1953125 69.68359375 C-180.382339 67.11590693 -175.06527165 67.54323267 -170 69 C-168.04084778 70.35684204 -168.04084778 70.35684204 -166.19067383 72.06494141 C-165.50276764 72.697005 -164.81486145 73.3290686 -164.10610962 73.98028564 C-160.64631716 77.29815307 -157.2484002 80.66878453 -153.88671875 84.0859375 C-152.37708253 85.60820126 -150.86731313 87.13033295 -149.35742188 88.65234375 C-147.00745185 91.02726353 -144.65912881 93.40377087 -142.31323242 95.78271484 C-140.02956254 98.09646106 -137.73981545 100.4040516 -135.44921875 102.7109375 C-134.74609055 103.42752533 -134.04296234 104.14411316 -133.31852722 104.88241577 C-132.66386978 105.54045197 -132.00921234 106.19848816 -131.3347168 106.87646484 C-130.76150192 107.45713715 -130.18828705 108.03780945 -129.59770203 108.63607788 C-127.93130068 110.23147915 -127.93130068 110.23147915 -125 111 C-116.52025732 105.8843116 -109.22736776 96.37184588 -102.24609375 89.37890625 C-100.81712673 87.95061408 -99.38801139 86.52247027 -97.95875549 85.09446716 C-94.97421313 82.11139324 -91.99147176 79.12653338 -89.01000977 76.14038086 C-85.20519925 72.32987361 -81.39591621 68.52387415 -77.58526516 64.71920872 C-74.63649412 61.77406638 -71.69012767 58.82652767 -68.74446297 55.87827873 C-67.34149442 54.4746473 -65.9377943 53.07174668 -64.53332329 51.66961861 C-55.24663383 42.43596454 -55.24663383 42.43596454 -46.48039246 32.71391296 C-43.77954005 29.5870219 -40.86754779 26.66492832 -37.96484375 23.7265625 C-37.32309708 23.07674408 -36.6813504 22.42692566 -36.02015686 21.75741577 C-34.67626972 20.39982374 -33.33091277 19.0436852 -31.98413086 17.68896484 C-30.61344459 16.30666952 -29.24726035 14.91989617 -27.88549805 13.52880859 C-25.90082247 11.50153116 -23.90328539 9.48777166 -21.90234375 7.4765625 C-21.29905746 6.85576813 -20.69577118 6.23497375 -20.07420349 5.59536743 C-14.23311916 -0.21613031 -8.08587982 -2.57215805 0 0 Z " fill="#FDFEFE" transform="translate(526,352)"/>
<path d="M0 0 C0.677054 -0.00453111 1.35410799 -0.00906223 2.05167878 -0.01373065 C4.31936289 -0.0263864 6.58680719 -0.02475355 8.85452271 -0.02310181 C10.48082793 -0.02908633 12.10713031 -0.0358917 13.73342896 -0.04345703 C18.15082462 -0.06113189 22.56814282 -0.06581303 26.98557043 -0.0670886 C30.67344104 -0.06898774 34.3612936 -0.07634543 38.04915726 -0.08343279 C46.7502389 -0.09971994 55.45127914 -0.10460144 64.15237427 -0.10317993 C73.12742703 -0.10197834 82.10223937 -0.12308296 91.07723129 -0.15466726 C98.78351055 -0.18082017 106.48971125 -0.19154764 114.19603455 -0.19026911 C118.7983464 -0.1897592 123.40044461 -0.19545875 128.00271225 -0.21662521 C132.33169004 -0.2359911 136.66025002 -0.23614351 140.98924255 -0.22159195 C142.57671341 -0.2195007 144.1642103 -0.22422361 145.75163651 -0.23631287 C147.92182869 -0.25176788 150.09058066 -0.24245764 152.26074219 -0.22705078 C153.47415724 -0.22814032 154.68757229 -0.22922985 155.93775749 -0.2303524 C160.46138483 0.44797142 163.79680774 2.37755349 166.61282349 6.02133179 C167.58177691 9.39798767 167.58572626 12.72271228 167.56985474 16.20492554 C167.58596802 16.90810913 167.6020813 17.61129272 167.61868286 18.33578491 C167.62292401 22.86108786 167.15600803 25.75852944 164.25735474 29.26742554 C159.83132334 32.74431176 156.95517212 33.7682928 151.35012817 33.77536011 C150.67953243 33.78160007 150.00893669 33.78784003 149.31801987 33.79426908 C147.08389266 33.81015069 144.85086391 33.79761508 142.61672974 33.78500366 C141.00983039 33.79042698 139.40293601 33.79755082 137.79605103 33.8062439 C133.44064608 33.82445542 129.0856208 33.81741878 124.73020935 33.80472755 C120.16860951 33.79458861 115.60704181 33.80399572 111.04544067 33.81027222 C103.38555068 33.81754602 95.72581504 33.80796795 88.06594849 33.78890991 C79.2146607 33.76714165 70.36374148 33.77419322 61.51246262 33.79621553 C53.90803247 33.81437717 46.30371317 33.81692413 38.69926834 33.80646086 C34.15960907 33.80023012 29.62012295 33.79937873 25.08047485 33.81260681 C20.81216713 33.82417583 16.54433383 33.81612061 12.27607727 33.79302979 C10.71119473 33.78774828 9.14627216 33.78924696 7.58140564 33.79808044 C5.44192831 33.80904254 3.30396277 33.79526727 1.1645813 33.77536011 C-0.03148743 33.77385201 -1.22755615 33.7723439 -2.45986938 33.7707901 C-7.16280794 33.04966484 -10.13779013 30.73656353 -13.59030151 27.57601929 C-15.41449284 23.92145294 -15.21572183 20.35654634 -15.18014526 16.32992554 C-15.20012573 15.53135132 -15.2201062 14.7327771 -15.24069214 13.91000366 C-15.23741279 9.95183412 -15.05091934 7.77760219 -12.96530151 4.32601929 C-8.76858929 0.43908196 -5.69345356 0.01573621 0 0 Z " fill="#FDFEFE" transform="translate(523.7426452636719,480.7325744628906)"/>
<path d="M0 0 C1.50819557 -0.00788544 1.50819557 -0.00788544 3.04685974 -0.01593018 C6.36741718 -0.02912356 9.68749439 -0.0203935 13.00805664 -0.01025391 C15.31824333 -0.01227498 17.62842939 -0.0151867 19.93861389 -0.01895142 C24.77977575 -0.02337402 29.62077151 -0.01694618 34.46191406 -0.00292969 C40.66382304 0.01415238 46.86534226 0.00432653 53.0672369 -0.01364708 C57.83792551 -0.02449468 62.60852193 -0.02103388 67.37921333 -0.0132637 C69.66573699 -0.01126391 71.95226904 -0.0137132 74.23878288 -0.02070236 C77.43675735 -0.0283316 80.6341035 -0.01669093 83.83203125 0 C84.77508118 -0.00607269 85.7181311 -0.01214539 86.6897583 -0.0184021 C91.86802343 0.03159868 95.51631541 0.46716351 99.98071289 3.38818359 C103.86267075 7.83949527 104.61031161 11.64264032 104.48071289 17.38818359 C104.50391602 18.41685547 104.50391602 18.41685547 104.52758789 19.46630859 C104.48859877 24.5738835 103.2627038 27.52172856 99.98071289 31.38818359 C95.32435029 35.17565186 90.71853878 34.82591864 84.99316406 34.80810547 C83.99091293 34.81657501 82.9886618 34.82504456 81.95603943 34.83377075 C78.64512413 34.85715569 75.33467327 34.85816239 72.02368164 34.85693359 C69.71828526 34.86403515 67.41289065 34.87173414 65.10749817 34.88000488 C60.27474049 34.89345382 55.44214616 34.89501694 50.609375 34.88916016 C44.42542105 34.88326923 38.24225357 34.91382954 32.05845165 34.95427704 C27.29624734 34.98016781 22.53423192 34.98303005 17.77196693 34.97938538 C15.49265888 34.98107587 13.21334204 34.9907115 10.93410301 35.00852966 C7.74102063 35.03074153 4.54952372 35.02100436 1.35644531 35.00341797 C0.42058594 35.01668121 -0.51527344 35.02994446 -1.47949219 35.04360962 C-7.78458118 34.96319429 -12.19328029 33.55633378 -17.01928711 29.38818359 C-19.71366945 25.34661008 -19.38674504 22.25714676 -19.39428711 17.51318359 C-19.4187793 16.71009766 -19.44327148 15.90701172 -19.46850586 15.07958984 C-19.4878749 11.16058675 -19.34361206 8.93464892 -17.30834961 5.50537109 C-11.67056628 0.29090256 -7.41935248 -0.04767398 0 0 Z " fill="#FEFEFE" transform="translate(588.019287109375,388.61181640625)"/>
<path d="M0 0 C0.66 0.66 1.32 1.32 2 2 C1.75 4.125 1.75 4.125 1 7 C0.64532324 8.43737423 0.29117992 9.87488017 -0.0625 11.3125 C-0.371875 12.529375 -0.68125 13.74625 -1 15 C-1.33 15 -1.66 15 -2 15 C-1.85816304 13.24967156 -1.71136571 11.49974466 -1.5625 9.75 C-1.48128906 8.77546875 -1.40007812 7.8009375 -1.31640625 6.796875 C-1.04925416 4.43538247 -0.64628032 2.28098935 0 0 Z " fill="#2398FE" transform="translate(92,415)"/>
<path d="M0 0 C0.33 0.99 0.66 1.98 1 3 C-5.625 3.25 -5.625 3.25 -9 1 C-6.04335481 -0.4783226 -3.25770263 -0.06032783 0 0 Z " fill="#4DAAFE" transform="translate(551,928)"/>
<path d="M0 0 C0.66 0 1.32 0 2 0 C0.55746343 3.36591866 -1.33264727 5.51047079 -4 8 C-4.66 7.67 -5.32 7.34 -6 7 C-5.04882866 5.8274869 -4.08882991 4.66212985 -3.125 3.5 C-2.59132813 2.8503125 -2.05765625 2.200625 -1.5078125 1.53125 C-0.76144531 0.77328125 -0.76144531 0.77328125 0 0 Z " fill="#319DFE" transform="translate(437,479)"/>
</svg>
